<svg xmlns="http://www.w3.org/2000/svg" width="1200" height="630" viewBox="0 0 1200 630">
  <rect width="1200" height="630" fill="#111827"/>
  <rect width="1200" height="5" fill="#EB5424"/>
  <rect y="625" width="1200" height="5" fill="#EB5424"/>

  <!-- Logo box -->
  <rect x="544" y="148" width="112" height="112" rx="22" fill="#EB5424"/>
  <path d="M572 178 h56 a6 6 0 0 1 6 6 v82 l-34 -21 -34 21 V184 a6 6 0 0 1 6-6 z"
    fill="none" stroke="white" stroke-width="5" stroke-linejoin="round" stroke-linecap="round"/>

  <!-- Title -->
  <text x="600" y="328"
    font-family="-apple-system, BlinkMacSystemFont, 'Segoe UI', Roboto, sans-serif"
    font-size="76" font-weight="700" fill="white" text-anchor="middle" letter-spacing="-2">
    PromptBar
  </text>

  <!-- Tagline -->
  <text x="600" y="384"
    font-family="-apple-system, BlinkMacSystemFont, 'Segoe UI', Roboto, sans-serif"
    font-size="26" fill="#9ca3af" text-anchor="middle" letter-spacing="0.3">
    AI Prompt Library — No Extensions Required
  </text>

  <!-- Stats -->
  <rect x="344" y="432" width="212" height="46" rx="23" fill="#1f2937"/>
  <text x="450" y="462"
    font-family="-apple-system, BlinkMacSystemFont, 'Segoe UI', Roboto, sans-serif"
    font-size="18" fill="#d1d5db" text-anchor="middle">
    57 prompts
  </text>

  <rect x="576" y="432" width="212" height="46" rx="23" fill="#1f2937"/>
  <text x="682" y="462"
    font-family="-apple-system, BlinkMacSystemFont, 'Segoe UI', Roboto, sans-serif"
    font-size="18" fill="#d1d5db" text-anchor="middle">
    8 personas
  </text>

  <rect x="808" y="432" width="212" height="46" rx="23" fill="#1f2937"/>
  <text x="914" y="462"
    font-family="-apple-system, BlinkMacSystemFont, 'Segoe UI', Roboto, sans-serif"
    font-size="18" fill="#d1d5db" text-anchor="middle">
    0 installs needed
  </text>
</svg>
